<svg width="300" height="300" viewBox="0 0 300 300" fill="none" xmlns="http://www.w3.org/2000/svg">
<g clip-path="url(#clip0)">
<path d="M261.503 149.995C261.575 165.132 261.115 181.15 260.121 198.049C259.128 214.949 257.113 232.537 254.075 250.813L216.868 250.991C218.692 244.244 220.41 236.033 222.024 226.357C223.351 218.05 224.62 207.594 225.829 194.991C227.136 182.484 227.993 167.636 228.399 150.447C227.844 136.582 227.151 124.427 226.32 113.982C225.489 103.634 224.518 94.5075 223.406 86.6026L170.379 86.8565L171.166 251.21L46.9485 251.805C43.7361 233.558 41.5526 216.039 40.3979 199.248C39.2433 182.456 38.6307 166.687 38.5601 151.941C38.4876 136.805 38.9483 120.836 39.9421 104.034C40.9358 87.2321 42.951 69.5953 45.9876 51.1235L253.114 50.1318C256.327 68.5737 258.511 86.1415 259.665 102.835C260.82 119.529 261.432 135.249 261.503 149.995ZM71.6624 151.197C71.6764 154.127 71.6904 157.056 71.7045 159.986C71.7185 162.916 71.8302 165.845 72.0395 168.774C72.3778 178.245 72.9068 186.738 73.6264 194.255C74.3464 201.868 75.1618 208.993 76.0725 215.63L134.959 215.348L134.344 87.029L75.4581 87.311C74.6096 93.6628 73.862 100.698 73.2154 108.416C72.5692 116.231 72.1216 124.73 71.8726 133.911C71.6913 136.841 71.6074 139.723 71.621 142.555C71.6346 145.387 71.6483 148.267 71.6624 151.197Z" fill="#CF1818"/>
</g>
<defs>
<clipPath id="clip0">
<rect width="300" height="300" rx="10" fill="white"/>
</clipPath>
</defs>
</svg>
